<svg width="204" height="59" viewBox="0 0 204 59" fill="none" xmlns="http://www.w3.org/2000/svg">
<path fill-rule="evenodd" clip-rule="evenodd" d="M15.1493 27.6967L0.149613 27.7875L5.6104e-05 3.07262C-0.00996983 1.41579 1.32502 0.0645427 2.98185 0.0545168L11.9817 5.6104e-05C13.6385 -0.00996983 14.9898 1.32502 14.9998 2.98185L15.1493 27.6967ZM31.6493 39.6972C42.4493 38.8972 45.1493 32.6972 45.1493 29.1972H0.149339C0.149339 33.1972 7.64934 37.6972 11.1493 39.6972V44.1972C6.74934 47.3972 5.14934 52.3639 5.64934 54.1972H37.6493C38.8493 49.7972 34.1493 45.8639 31.6493 44.1972V39.6972ZM16.6493 26.6972V27.6972L44.6493 27.6972V26.6972C44.6493 25.5926 43.7539 24.6972 42.6493 24.6972L18.6493 24.6972C17.5448 24.6972 16.6493 25.5926 16.6493 26.6972Z" fill="black"/>
<path d="M57.52 11.64H67C69.4533 11.64 71.2933 12.32 72.52 13.68C73.7467 15.04 74.3733 17.0533 74.4 19.72L74.48 35.8C74.5067 39.1867 73.92 41.7333 72.72 43.44C71.52 45.1467 69.5333 46 66.76 46H57.52V11.64ZM65.64 39.92C66.8933 39.92 67.52 39.3067 67.52 38.08V20.36C67.52 19.5867 67.4533 19.0133 67.32 18.64C67.2133 18.24 67 17.9733 66.68 17.84C66.36 17.7067 65.8667 17.64 65.2 17.64H64.44V39.92H65.64ZM77.2466 46V11.64H91.0066V18.28H84.2466V24.96H90.7266V31.44H84.2466V39.32H91.4466V46H77.2466ZM96.8909 46L92.6509 11.6H99.2109L101.731 35L103.971 11.6H110.531L106.291 46H96.8909ZM115.441 46V18.24H111.361V11.64H126.401V18.24H122.321V46H115.441ZM136.54 46.32C133.767 46.32 131.66 45.48 130.22 43.8C128.78 42.0933 128.06 39.7067 128.06 36.64V20.28C128.06 17.32 128.78 15.0933 130.22 13.6C131.66 12.08 133.767 11.32 136.54 11.32C139.314 11.32 141.42 12.08 142.86 13.6C144.3 15.0933 145.02 17.32 145.02 20.28V36.64C145.02 39.7333 144.3 42.12 142.86 43.8C141.42 45.48 139.314 46.32 136.54 46.32ZM136.54 40C137.154 40 137.567 39.7333 137.78 39.2C137.994 38.6667 138.1 37.92 138.1 36.96V20.16C138.1 19.4133 137.994 18.8133 137.78 18.36C137.594 17.88 137.194 17.64 136.58 17.64C135.434 17.64 134.86 18.5067 134.86 20.24V37C134.86 37.9867 134.98 38.7333 135.22 39.24C135.46 39.7467 135.9 40 136.54 40ZM147.473 46V11.64H154.113V46H147.473ZM156.856 46V11.64H163.736V40.16H170.816V46H156.856ZM172.754 46V11.64H186.514V18.28H179.754V24.96H186.234V31.44H179.754V39.32H186.954V46H172.754ZM192.199 46V18.24H188.119V11.64H203.159V18.24H199.079V46H192.199Z" fill="black"/>
</svg>
