<svg width="16" height="17" viewBox="0 0 16 17" fill="none" xmlns="http://www.w3.org/2000/svg">
<path d="M12.3335 10.9017L11.8595 10.4558L11.5858 10.2081C12.5233 9.06844 12.7775 8.07706 12.7775 6.44193C12.7776 2.87389 9.91588 0 6.36429 0C2.86126 0 0 2.87398 0 6.44197C0 10.01 2.86126 12.8838 6.41339 12.8838C7.99211 12.8838 9.07629 12.685 10.2108 11.7437L10.4942 12.0012L10.89 12.398L14.52 16.237L16 14.7505L12.3335 10.9017ZM6.41339 10.9017C3.9467 10.9017 1.97337 8.91953 1.97337 6.44193C1.97337 3.96414 3.94666 1.98214 6.41339 1.98214C8.88 1.98214 10.8534 3.96419 10.8534 6.44188C10.8534 8.91944 8.88 10.9016 6.41339 10.9016V10.9017Z" fill="black"/>
</svg>
